<svg data-v-423bf9ae="" xmlns="http://www.w3.org/2000/svg" viewBox="0 0 386.6301303433306 60" class="font"><!----><!----><defs data-v-423bf9ae=""><linearGradient data-v-423bf9ae="" gradientTransform="rotate(25)" id="d091d822-a58b-42e0-8e7a-ae0321ace40a" x1="0%" y1="0%" x2="100%" y2="0%"><stop data-v-423bf9ae="" offset="0%" style="stop-color: rgba(0, 238, 255, 0.855); stop-opacity: 1;"></stop><stop data-v-423bf9ae="" offset="100%" style="stop-color: rgb(32, 169, 211); stop-opacity: 1;"></stop></linearGradient></defs><g data-v-423bf9ae="" id="d8d92c2d-f390-4621-9f3d-ace3af59d080" fill="url(#d091d822-a58b-42e0-8e7a-ae0321ace40a)" transform="matrix(5.479452150239503,0,0,5.479452150239503,-4.767120204358349,2.465753833808918)"><path d="M8.02 0.70L8.02 0.70Q8.29 0.85 8.42 1.13L8.42 1.13L8.42 1.13Q8.55 1.40 8.55 1.72L8.55 1.72L8.55 1.72Q8.55 2.00 8.44 2.28L8.44 2.28L8.44 2.28Q8.33 2.56 8.15 2.74L8.15 2.74L8.15 2.74Q7.94 2.73 7.52 2.73L7.52 2.73L7.52 2.73Q7.25 2.73 6.55 2.76L6.55 2.76L5.81 2.77L5.81 2.77Q5.88 2.37 5.47 4.66L5.47 4.66L5.19 6.26L5.19 6.26Q5.05 7.08 4.90 8.43L4.90 8.43L4.90 8.43Q4.76 9.58 4.66 10.04L4.66 10.04L4.66 10.04Q4.55 10.50 4.33 10.50L4.33 10.50L4.33 10.50Q4.00 10.50 3.56 10.27L3.56 10.27L3.56 10.27Q3.12 10.04 2.79 9.72L2.79 9.72L2.79 9.72Q2.46 9.39 2.46 9.18L2.46 9.18L2.46 9.18Q2.45 8.86 2.80 7.28L2.80 7.28L2.80 7.28Q3.07 5.95 3.18 5.31L3.18 5.31L3.18 5.31Q3.18 5.33 3.40 4.14L3.40 4.14L3.40 4.14Q3.60 3.08 3.64 2.84L3.64 2.84L1.46 3.11L1.46 3.11Q1.19 2.97 1.03 2.69L1.03 2.69L1.03 2.69Q0.87 2.42 0.87 2.10L0.87 2.10L0.87 2.10Q0.87 1.54 1.30 1.11L1.30 1.11L1.30 1.11Q2.10 0.99 3.30 0.96L3.30 0.96L3.30 0.96Q4.49 0.92 4.72 0.91L4.72 0.91L4.72 0.91Q6.19 0.87 6.87 0.83L6.87 0.83L6.87 0.83Q7.55 0.80 8.02 0.70L8.02 0.70ZM11.03 2.20L11.03 2.20Q10.77 2.20 10.39 1.98L10.39 1.98L10.39 1.98Q10.02 1.76 9.76 1.46L9.76 1.46L9.76 1.46Q9.49 1.16 9.49 0.92L9.49 0.92L9.49 0.92Q9.49 0.55 9.69 0.17L9.69 0.17L9.69 0.17Q9.88-0.21 10.18-0.38L10.18-0.38L10.18-0.38Q10.32-0.45 10.63-0.45L10.63-0.45L10.63-0.45Q11.13-0.45 11.64-0.22L11.64-0.22L11.64-0.22Q12.15 0 12.26 0.34L12.26 0.34L12.26 0.34Q12.29 0.41 12.29 0.55L12.29 0.55L12.29 0.55Q12.29 0.87 12.10 1.26L12.10 1.26L12.10 1.26Q11.90 1.65 11.61 1.92L11.61 1.92L11.61 1.92Q11.31 2.20 11.03 2.20L11.03 2.20ZM10.08 10.50L10.08 10.50Q9.72 10.50 9.26 10.26L9.26 10.26L9.26 10.26Q8.81 10.01 8.48 9.68L8.48 9.68L8.48 9.68Q8.15 9.35 8.15 9.13L8.15 9.13L8.15 9.13Q8.15 8.88 8.33 8.39L8.33 8.39L8.33 8.39Q8.51 7.90 8.88 7.04L8.88 7.04L8.88 7.04Q9.16 6.38 9.30 6.01L9.30 6.01L9.30 6.01Q9.44 5.64 9.44 5.49L9.44 5.49L9.44 5.49Q9.44 5.38 9.30 5.24L9.30 5.24L9.30 5.24Q9.17 5.11 8.90 4.91L8.90 4.91L8.90 4.91Q8.60 4.68 8.45 4.54L8.45 4.54L8.45 4.54Q8.30 4.40 8.30 4.24L8.30 4.24L8.30 4.24Q8.30 3.95 8.57 3.56L8.57 3.56L8.57 3.56Q8.85 3.16 9.22 2.88L9.22 2.88L9.22 2.88Q9.59 2.60 9.86 2.60L9.86 2.60L9.86 2.60Q10.18 2.60 10.56 2.88L10.56 2.88L10.56 2.88Q10.95 3.16 11.22 3.55L11.22 3.55L11.22 3.55Q11.49 3.93 11.49 4.17L11.49 4.17L11.49 4.17Q11.49 4.79 11.18 5.93L11.18 5.93L11.18 5.93Q10.86 7.07 10.37 8.39L10.37 8.39L10.37 8.39Q10.71 8.23 10.96 8.06L10.96 8.06L10.96 8.06Q11.21 7.90 11.66 7.55L11.66 7.55L11.66 7.55Q12.29 7.76 12.59 8.14L12.59 8.14L12.59 8.14Q12.88 8.53 12.88 8.97L12.88 8.97L12.88 8.97Q12.88 9.34 12.41 9.69L12.41 9.69L12.41 9.69Q11.94 10.04 11.27 10.27L11.27 10.27L11.27 10.27Q10.60 10.50 10.08 10.50L10.08 10.50ZM15.81 8.65L15.81 8.65Q17.12 8.60 18.24 7.29L18.24 7.29L18.24 7.29Q18.93 7.42 19.34 7.81L19.34 7.81L19.34 7.81Q19.75 8.20 19.75 8.81L19.75 8.81L19.75 8.81Q19.75 9.24 19.26 9.63L19.26 9.63L19.26 9.63Q18.76 10.02 18.02 10.26L18.02 10.26L18.02 10.26Q17.28 10.50 16.59 10.50L16.59 10.50L16.59 10.50Q15.92 10.50 15.19 10.06L15.19 10.06L15.19 10.06Q14.46 9.62 13.99 8.97L13.99 8.97L13.99 8.97Q13.51 8.33 13.51 7.76L13.51 7.76L13.51 7.76Q13.51 6.65 14.02 5.44L14.02 5.44L14.02 5.44Q14.53 4.23 15.44 3.42L15.44 3.42L15.44 3.42Q16.35 2.60 17.49 2.60L17.49 2.60L17.49 2.60Q18.19 2.60 18.82 2.86L18.82 2.86L18.82 2.86Q19.45 3.11 19.82 3.53L19.82 3.53L19.82 3.53Q20.20 3.95 20.20 4.40L20.20 4.40L20.20 4.40Q20.20 4.83 19.82 5.17L19.82 5.17L19.82 5.17Q19.45 5.52 18.83 5.52L18.83 5.52L18.83 5.52Q18.63 5.52 18.42 5.47L18.42 5.47L18.42 5.47Q18.07 4.62 17.65 4.27L17.65 4.27L17.65 4.27Q16.73 4.87 16.25 5.95L16.25 5.95L16.25 5.95Q15.78 7.03 15.78 8.15L15.78 8.15L15.78 8.15Q15.78 8.32 15.81 8.65L15.81 8.65ZM29.74 4.91L27.65 5.00L27.65 5.00Q27.19 7.11 27.05 8.44L27.05 8.44L27.05 8.44Q27.94 8.01 28.49 7.55L28.49 7.55L28.49 7.55Q29.11 7.76 29.41 8.13L29.41 8.13L29.41 8.13Q29.71 8.50 29.71 8.97L29.71 8.97L29.71 8.97Q29.71 9.31 29.23 9.67L29.23 9.67L29.23 9.67Q28.76 10.02 28.10 10.26L28.10 10.26L28.10 10.26Q27.44 10.50 26.98 10.50L26.98 10.50L26.98 10.50Q26.57 10.50 26.07 10.26L26.07 10.26L26.07 10.26Q25.58 10.01 25.23 9.68L25.23 9.68L25.23 9.68Q24.88 9.35 24.88 9.11L24.88 9.11L24.88 9.11Q24.88 8.92 25.02 8.27L25.02 8.27L25.02 8.27Q25.17 7.62 25.29 7.15L25.29 7.15L25.29 7.15Q25.41 6.68 25.47 6.45L25.47 6.45L25.80 5.11L24.95 5.17L24.95 5.17Q24.71 5.05 24.58 4.82L24.58 4.82L24.58 4.82Q24.46 4.58 24.46 4.27L24.46 4.27L24.46 4.27Q24.46 3.71 24.86 3.32L24.86 3.32L24.86 3.32Q25.37 3.35 26.10 3.37L26.10 3.37L26.10 3.37Q26.10 2.48 26.29 1.39L26.29 1.39L26.29 1.39Q26.49 0.31 26.73 0.31L26.73 0.31L26.73 0.31Q27.02 0.31 27.47 0.56L27.47 0.56L27.47 0.56Q27.92 0.81 28.25 1.15L28.25 1.15L28.25 1.15Q28.59 1.48 28.59 1.74L28.59 1.74L28.59 1.74Q28.59 2.06 28.47 2.39L28.47 2.39L28.47 2.39Q28.35 2.72 28.08 3.29L28.08 3.29L28.08 3.29Q28.32 3.26 29.29 3.09L29.29 3.09L29.61 3.04L29.61 3.04Q29.86 3.18 29.99 3.44L29.99 3.44L29.99 3.44Q30.13 3.71 30.13 4.02L30.13 4.02L30.13 4.02Q30.13 4.27 30.03 4.51L30.03 4.51L30.03 4.51Q29.93 4.75 29.74 4.91L29.74 4.91ZM37.13 8.44L37.13 8.44Q37.98 8.02 38.57 7.55L38.57 7.55L38.57 7.55Q39.19 7.76 39.49 8.13L39.49 8.13L39.49 8.13Q39.79 8.50 39.79 8.97L39.79 8.97L39.79 8.97Q39.79 9.31 39.31 9.67L39.31 9.67L39.31 9.67Q38.84 10.02 38.18 10.26L38.18 10.26L38.18 10.26Q37.52 10.50 37.06 10.50L37.06 10.50L37.06 10.50Q36.74 10.50 36.32 10.26L36.32 10.26L36.32 10.26Q35.91 10.02 35.61 9.70L35.61 9.70L35.61 9.70Q35.31 9.38 35.31 9.20L35.31 9.20L35.31 9.20Q35.31 9.06 35.43 8.82L35.43 8.82L35.43 8.82Q35.55 8.58 35.69 8.33L35.69 8.33L35.69 8.33Q35.83 8.08 35.87 7.99L35.87 7.99L35.52 7.80L35.52 7.80Q34.78 9.02 34.10 9.76L34.10 9.76L34.10 9.76Q33.42 10.50 32.76 10.50L32.76 10.50L32.76 10.50Q32.31 10.50 31.82 10.11L31.82 10.11L31.82 10.11Q31.32 9.72 30.98 9.16L30.98 9.16L30.98 9.16Q30.63 8.60 30.63 8.16L30.63 8.16L30.63 8.16Q30.63 6.92 31.15 5.61L31.15 5.61L31.15 5.61Q31.67 4.31 32.60 3.46L32.60 3.46L32.60 3.46Q33.53 2.60 34.71 2.60L34.71 2.60L34.71 2.60Q35.13 2.60 35.56 2.98L35.56 2.98L35.56 2.98Q35.99 3.36 36.12 3.75L36.12 3.75L36.12 3.75Q36.19 3.44 36.32 3.21L36.32 3.21L36.32 3.21Q36.46 2.98 36.61 2.98L36.61 2.98L36.61 2.98Q36.97 2.98 37.41 3.24L37.41 3.24L37.41 3.24Q37.86 3.50 38.16 3.84L38.16 3.84L38.16 3.84Q38.47 4.19 38.47 4.38L38.47 4.38L38.47 4.38Q38.46 4.65 38.26 5.26L38.26 5.26L38.26 5.26Q38.05 5.88 37.60 7.14L37.60 7.14L37.60 7.14Q37.34 7.83 37.13 8.44L37.13 8.44ZM32.83 8.55L32.83 8.55Q33.96 7.85 34.80 6.82L34.80 6.82L34.80 6.82Q35.64 5.80 35.95 4.55L35.95 4.55L35.95 4.55Q35.57 4.38 35.24 4.38L35.24 4.38L35.24 4.38Q34.58 4.38 34.06 4.97L34.06 4.97L34.06 4.97Q33.54 5.56 33.24 6.51L33.24 6.51L33.24 6.51Q32.93 7.46 32.83 8.55L32.83 8.55ZM42.71 8.65L42.71 8.65Q44.03 8.60 45.15 7.29L45.15 7.29L45.15 7.29Q45.84 7.42 46.25 7.81L46.25 7.81L46.25 7.81Q46.66 8.20 46.66 8.81L46.66 8.81L46.66 8.81Q46.66 9.24 46.17 9.63L46.17 9.63L46.17 9.63Q45.67 10.02 44.93 10.26L44.93 10.26L44.93 10.26Q44.18 10.50 43.50 10.50L43.50 10.50L43.50 10.50Q42.83 10.50 42.10 10.06L42.10 10.06L42.10 10.06Q41.37 9.62 40.89 8.97L40.89 8.97L40.89 8.97Q40.42 8.33 40.42 7.76L40.42 7.76L40.42 7.76Q40.42 6.65 40.93 5.44L40.93 5.44L40.93 5.44Q41.44 4.23 42.35 3.42L42.35 3.42L42.35 3.42Q43.26 2.60 44.39 2.60L44.39 2.60L44.39 2.60Q45.09 2.60 45.72 2.86L45.72 2.86L45.72 2.86Q46.35 3.11 46.73 3.53L46.73 3.53L46.73 3.53Q47.11 3.95 47.11 4.40L47.11 4.40L47.11 4.40Q47.11 4.83 46.73 5.17L46.73 5.17L46.73 5.17Q46.35 5.52 45.74 5.52L45.74 5.52L45.74 5.52Q45.54 5.52 45.33 5.47L45.33 5.47L45.33 5.47Q44.98 4.62 44.56 4.27L44.56 4.27L44.56 4.27Q43.64 4.87 43.16 5.95L43.16 5.95L43.16 5.95Q42.69 7.03 42.69 8.15L42.69 8.15L42.69 8.15Q42.69 8.32 42.71 8.65L42.71 8.65ZM56.64 4.91L54.56 5.00L54.56 5.00Q54.10 7.11 53.96 8.44L53.96 8.44L53.96 8.44Q54.85 8.01 55.40 7.55L55.40 7.55L55.40 7.55Q56.01 7.76 56.32 8.13L56.32 8.13L56.32 8.13Q56.62 8.50 56.62 8.97L56.62 8.97L56.62 8.97Q56.62 9.31 56.14 9.67L56.14 9.67L56.14 9.67Q55.66 10.02 55.01 10.26L55.01 10.26L55.01 10.26Q54.35 10.50 53.89 10.50L53.89 10.50L53.89 10.50Q53.48 10.50 52.98 10.26L52.98 10.26L52.98 10.26Q52.49 10.01 52.14 9.68L52.14 9.68L52.14 9.68Q51.79 9.35 51.79 9.11L51.79 9.11L51.79 9.11Q51.79 8.92 51.93 8.27L51.93 8.27L51.93 8.27Q52.08 7.62 52.20 7.15L52.20 7.15L52.20 7.15Q52.32 6.68 52.37 6.45L52.37 6.45L52.71 5.11L51.86 5.17L51.86 5.17Q51.62 5.05 51.49 4.82L51.49 4.82L51.49 4.82Q51.37 4.58 51.37 4.27L51.37 4.27L51.37 4.27Q51.37 3.71 51.77 3.32L51.77 3.32L51.77 3.32Q52.28 3.35 53.00 3.37L53.00 3.37L53.00 3.37Q53.00 2.48 53.20 1.39L53.20 1.39L53.20 1.39Q53.40 0.31 53.63 0.31L53.63 0.31L53.63 0.31Q53.93 0.31 54.38 0.56L54.38 0.56L54.38 0.56Q54.82 0.81 55.16 1.15L55.16 1.15L55.16 1.15Q55.50 1.48 55.50 1.74L55.50 1.74L55.50 1.74Q55.50 2.06 55.38 2.39L55.38 2.39L55.38 2.39Q55.26 2.72 54.99 3.29L54.99 3.29L54.99 3.29Q55.23 3.26 56.20 3.09L56.20 3.09L56.52 3.04L56.52 3.04Q56.77 3.18 56.90 3.44L56.90 3.44L56.90 3.44Q57.04 3.71 57.04 4.02L57.04 4.02L57.04 4.02Q57.04 4.27 56.94 4.51L56.94 4.51L56.94 4.51Q56.84 4.75 56.64 4.91L56.64 4.91ZM60.65 2.59L60.65 2.59Q61.64 2.70 62.46 3.18L62.46 3.18L62.46 3.18Q63.28 3.67 63.74 4.34L63.74 4.34L63.74 4.34Q64.20 5.01 64.20 5.68L64.20 5.68L64.20 5.68Q64.20 6.69 63.69 7.83L63.69 7.83L63.69 7.83Q63.17 8.96 62.24 9.73L62.24 9.73L62.24 9.73Q61.32 10.50 60.19 10.50L60.19 10.50L60.19 10.50Q59.63 10.50 59.00 10.09L59.00 10.09L59.00 10.09Q58.37 9.67 57.94 9.08L57.94 9.08L57.94 9.08Q57.51 8.48 57.51 8.02L57.51 8.02L57.51 8.02Q57.51 7.17 57.72 6.26L57.72 6.26L57.72 6.26Q57.93 5.36 58.37 4.51L58.37 4.51L58.37 4.51Q58.77 4.28 59.18 4.28L59.18 4.28L59.18 4.28Q59.36 4.28 59.51 4.33L59.51 4.33L59.51 4.33Q59.46 4.16 59.46 3.93L59.46 3.93L59.46 3.93Q59.46 3.49 59.77 3.12L59.77 3.12L59.77 3.12Q60.09 2.76 60.65 2.59L60.65 2.59ZM59.68 8.90L59.68 8.90Q60.84 8.51 61.49 7.56L61.49 7.56L61.49 7.56Q62.13 6.61 62.34 5.29L62.34 5.29L62.34 5.29Q61.71 4.84 60.63 4.84L60.63 4.84L60.63 4.84Q60.37 4.84 60.23 4.86L60.23 4.86L60.23 4.86Q60.38 5.14 60.38 5.49L60.38 5.49L60.38 5.49Q60.02 6.06 59.82 6.75L59.82 6.75L59.82 6.75Q59.63 7.45 59.63 8.15L59.63 8.15L59.63 8.15Q59.63 8.57 59.68 8.90L59.68 8.90ZM68.04 10.50L68.04 10.50Q67.37 10.50 66.64 10.06L66.64 10.06L66.64 10.06Q65.91 9.62 65.44 8.97L65.44 8.97L65.44 8.97Q64.96 8.33 64.96 7.76L64.96 7.76L64.96 7.76Q64.96 6.73 65.44 5.52L65.44 5.52L65.44 5.52Q65.93 4.30 66.78 3.45L66.78 3.45L66.78 3.45Q67.63 2.60 68.71 2.60L68.71 2.60L68.71 2.60Q69.48 2.60 70.11 2.94L70.11 2.94L70.11 2.94Q70.73 3.28 71.08 3.78L71.08 3.78L71.08 3.78Q71.43 4.28 71.43 4.76L71.43 4.76L71.43 4.76Q71.43 5.35 70.90 5.92L70.90 5.92L70.90 5.92Q70.36 6.48 69.41 6.91L69.41 6.91L69.41 6.91Q68.46 7.34 67.24 7.52L67.24 7.52L67.24 7.52Q67.23 7.69 67.23 8.02L67.23 8.02L67.23 8.02Q67.23 8.44 67.26 8.65L67.26 8.65L67.26 8.65Q67.96 8.58 68.64 8.27L68.64 8.27L68.64 8.27Q69.33 7.97 70.14 7.41L70.14 7.41L70.14 7.41Q70.69 7.57 70.97 7.94L70.97 7.94L70.97 7.94Q71.25 8.30 71.25 8.81L71.25 8.81L71.25 8.81Q71.25 9.23 70.73 9.63L70.73 9.63L70.73 9.63Q70.22 10.02 69.47 10.26L69.47 10.26L69.47 10.26Q68.71 10.50 68.04 10.50L68.04 10.50ZM67.45 6.47L67.45 6.47Q68.31 6.16 68.88 5.68L68.88 5.68L68.88 5.68Q69.45 5.21 69.45 4.87L69.45 4.87L69.45 4.87Q69.45 4.48 68.91 4.34L68.91 4.34L68.91 4.34Q68.38 4.73 68.01 5.28L68.01 5.28L68.01 5.28Q67.63 5.82 67.45 6.47L67.45 6.47Z"></path></g><!----><!----></svg>