<?xml version="1.0" standalone="no"?><svg xmlns="http://www.w3.org/2000/svg" viewBox="0 0 1440 320"><path fill="#0099ff" fill-opacity="0.7" d="M0,256L13.3,224C26.7,192,53,128,80,117.3C106.7,107,133,149,160,144C186.7,139,213,85,240,69.3C266.7,53,293,75,320,122.7C346.7,171,373,245,400,229.3C426.7,213,453,107,480,80C506.7,53,533,107,560,154.7C586.7,203,613,245,640,256C666.7,267,693,245,720,202.7C746.7,160,773,96,800,58.7C826.7,21,853,11,880,37.3C906.7,64,933,128,960,176C986.7,224,1013,256,1040,229.3C1066.7,203,1093,117,1120,117.3C1146.7,117,1173,203,1200,245.3C1226.7,288,1253,288,1280,256C1306.7,224,1333,160,1360,133.3C1386.7,107,1413,117,1427,122.7L1440,128L1440,320L1426.7,320C1413.3,320,1387,320,1360,320C1333.3,320,1307,320,1280,320C1253.3,320,1227,320,1200,320C1173.3,320,1147,320,1120,320C1093.3,320,1067,320,1040,320C1013.3,320,987,320,960,320C933.3,320,907,320,880,320C853.3,320,827,320,800,320C773.3,320,747,320,720,320C693.3,320,667,320,640,320C613.3,320,587,320,560,320C533.3,320,507,320,480,320C453.3,320,427,320,400,320C373.3,320,347,320,320,320C293.3,320,267,320,240,320C213.3,320,187,320,160,320C133.3,320,107,320,80,320C53.3,320,27,320,13,320L0,320Z"></path></svg>